<?xml version="1.0" standalone="no"?>
<!DOCTYPE svg PUBLIC "-//W3C//DTD SVG 20010904//EN"
 "http://www.w3.org/TR/2001/REC-SVG-20010904/DTD/svg10.dtd">
<svg version="1.0" xmlns="http://www.w3.org/2000/svg"
 width="259.000000pt" height="159.000000pt" viewBox="0 0 259.000000 159.000000"
 preserveAspectRatio="xMidYMid meet">

<g transform="translate(0.000000,159.000000) scale(0.100000,-0.100000)"
fill="#000000" stroke="none">
<path d="M656 1368 c-11 -10 -63 -32 -115 -48 -170 -52 -231 -108 -231 -214 0
-31 5 -56 10 -56 6 0 10 14 10 32 0 26 11 42 62 89 34 32 64 56 66 54 2 -2 -7
-21 -19 -42 -13 -23 -20 -47 -16 -56 9 -23 43 -21 67 3 17 17 20 17 20 4 0
-30 -33 -85 -59 -99 -25 -14 -26 -14 -3 -15 57 -1 131 60 172 141 28 53 25 59
-16 39 -38 -20 -59 -18 -68 6 -9 24 10 51 67 92 29 22 58 46 65 55 21 24 10
37 -12 15z"/>
<path d="M1980 982 c-15 -12 -24 -33 -27 -65 -5 -41 -8 -47 -29 -47 -15 0 -24
-6 -24 -15 0 -9 9 -15 25 -15 l25 0 0 -120 0 -120 30 0 30 0 0 120 0 120 30 0
c20 0 30 5 30 15 0 10 -10 15 -31 15 -29 0 -30 2 -27 38 3 34 6 37 36 40 26 3
32 7 32 28 0 21 -4 24 -39 24 -22 0 -48 -8 -61 -18z"/>
<path d="M200 955 l0 -35 60 0 60 0 0 -160 0 -160 55 0 54 0 3 158 3 157 63 3
62 3 0 34 0 35 -180 0 -180 0 0 -35z"/>
<path d="M1100 795 l0 -195 100 0 c69 0 110 5 129 15 128 66 128 294 0 360
-19 10 -60 15 -129 15 l-100 0 0 -195z m209 127 c37 -27 55 -69 55 -127 0 -96
-44 -143 -142 -152 l-62 -6 0 158 0 158 62 -6 c37 -3 71 -13 87 -25z"/>
<path d="M1790 795 l0 -195 25 0 25 0 0 195 0 195 -25 0 -25 0 0 -195z"/>
<path d="M2173 942 c-16 -2 -23 -11 -25 -35 -2 -24 -8 -33 -25 -35 -13 -2 -23
-10 -23 -17 0 -7 10 -15 23 -17 21 -3 22 -7 25 -113 3 -124 9 -135 74 -135 31
0 38 4 38 20 0 15 -7 20 -25 20 -31 0 -37 21 -33 125 l3 80 33 3 c19 2 32 9
32 17 0 8 -13 15 -32 17 -29 3 -34 7 -38 38 -4 29 -9 34 -27 32z"/>
<path d="M1538 864 c-41 -22 -58 -63 -58 -140 0 -62 2 -68 35 -101 34 -34 37
-35 97 -31 51 4 65 9 85 32 30 35 30 56 -1 56 -14 0 -30 -10 -40 -25 -12 -18
-25 -25 -50 -25 -37 0 -61 21 -71 63 l-7 27 102 0 103 0 -6 45 c-8 54 -28 88
-63 103 -34 16 -93 14 -126 -4z m112 -44 c11 -11 20 -29 20 -40 0 -18 -7 -20
-71 -20 -68 0 -70 1 -63 23 17 57 75 76 114 37z"/>
</g>
</svg>
